<svg xmlns="http://www.w3.org/2000/svg" width="1000" height="620" viewBox="0 0 1000 620">
<rect width="100%" height="100%" fill="#ffffff"/>
<text x="500.0" y="34" text-anchor="middle" font-family="Arial" font-size="24" font-weight="700">Average FPS by Agent Count</text>
<line x1="95" y1="70" x2="95" y2="530" stroke="#222" stroke-width="1.5"/>
<line x1="95" y1="530" x2="740" y2="530" stroke="#222" stroke-width="1.5"/>
<line x1="95" y1="530.0" x2="740" y2="530.0" stroke="#ddd" stroke-width="1"/>
<text x="85" y="534.0" text-anchor="end" font-family="Arial" font-size="12">0.0</text>
<line x1="95" y1="438.0" x2="740" y2="438.0" stroke="#ddd" stroke-width="1"/>
<text x="85" y="442.0" text-anchor="end" font-family="Arial" font-size="12">83.6</text>
<line x1="95" y1="346.0" x2="740" y2="346.0" stroke="#ddd" stroke-width="1"/>
<text x="85" y="350.0" text-anchor="end" font-family="Arial" font-size="12">167.3</text>
<line x1="95" y1="254.0" x2="740" y2="254.0" stroke="#ddd" stroke-width="1"/>
<text x="85" y="258.0" text-anchor="end" font-family="Arial" font-size="12">250.9</text>
<line x1="95" y1="162.0" x2="740" y2="162.0" stroke="#ddd" stroke-width="1"/>
<text x="85" y="166.0" text-anchor="end" font-family="Arial" font-size="12">334.5</text>
<line x1="95" y1="70.0" x2="740" y2="70.0" stroke="#ddd" stroke-width="1"/>
<text x="85" y="74.0" text-anchor="end" font-family="Arial" font-size="12">418.2</text>
<line x1="95.0" y1="530" x2="95.0" y2="536" stroke="#222" stroke-width="1"/>
<text x="95.0" y="555" text-anchor="middle" font-family="Arial" font-size="12">1000</text>
<line x1="166.7" y1="530" x2="166.7" y2="536" stroke="#222" stroke-width="1"/>
<text x="166.7" y="555" text-anchor="middle" font-family="Arial" font-size="12">2000</text>
<line x1="381.7" y1="530" x2="381.7" y2="536" stroke="#222" stroke-width="1"/>
<text x="381.7" y="555" text-anchor="middle" font-family="Arial" font-size="12">5000</text>
<line x1="740.0" y1="530" x2="740.0" y2="536" stroke="#222" stroke-width="1"/>
<text x="740.0" y="555" text-anchor="middle" font-family="Arial" font-size="12">10000</text>
<polyline points="95.0,402.5 166.7,460.6 381.7,489.9 740.0,504.5" fill="none" stroke="#2F6FED" stroke-width="3"/>
<circle cx="95.0" cy="402.5" r="5" fill="#2F6FED" stroke="#fff" stroke-width="1.5"/>
<circle cx="166.7" cy="460.6" r="5" fill="#2F6FED" stroke="#fff" stroke-width="1.5"/>
<circle cx="381.7" cy="489.9" r="5" fill="#2F6FED" stroke="#fff" stroke-width="1.5"/>
<circle cx="740.0" cy="504.5" r="5" fill="#2F6FED" stroke="#fff" stroke-width="1.5"/>
<line x1="775" y1="70" x2="799" y2="70" stroke="#2F6FED" stroke-width="3"/>
<circle cx="787" cy="70" r="4" fill="#2F6FED"/>
<text x="809" y="74" font-family="Arial" font-size="13">BaselineNavMesh</text>
<polyline points="95.0,118.7 166.7,245.2 381.7,383.5 740.0,442.8" fill="none" stroke="#D1495B" stroke-width="3"/>
<circle cx="95.0" cy="118.7" r="5" fill="#D1495B" stroke="#fff" stroke-width="1.5"/>
<circle cx="166.7" cy="245.2" r="5" fill="#D1495B" stroke="#fff" stroke-width="1.5"/>
<circle cx="381.7" cy="383.5" r="5" fill="#D1495B" stroke="#fff" stroke-width="1.5"/>
<circle cx="740.0" cy="442.8" r="5" fill="#D1495B" stroke="#fff" stroke-width="1.5"/>
<line x1="775" y1="94" x2="799" y2="94" stroke="#D1495B" stroke-width="3"/>
<circle cx="787" cy="94" r="4" fill="#D1495B"/>
<text x="809" y="98" font-family="Arial" font-size="13">DotsEcsBehaviorLodGpuInstanced</text>
<polyline points="95.0,114.7 166.7,251.2 381.7,383.7 740.0,446.7" fill="none" stroke="#00876C" stroke-width="3"/>
<circle cx="95.0" cy="114.7" r="5" fill="#00876C" stroke="#fff" stroke-width="1.5"/>
<circle cx="166.7" cy="251.2" r="5" fill="#00876C" stroke="#fff" stroke-width="1.5"/>
<circle cx="381.7" cy="383.7" r="5" fill="#00876C" stroke="#fff" stroke-width="1.5"/>
<circle cx="740.0" cy="446.7" r="5" fill="#00876C" stroke="#fff" stroke-width="1.5"/>
<line x1="775" y1="118" x2="799" y2="118" stroke="#00876C" stroke-width="3"/>
<circle cx="787" cy="118" r="4" fill="#00876C"/>
<text x="809" y="122" font-family="Arial" font-size="13">DotsEcsGpuInstanced</text>
<polyline points="95.0,104.1 166.7,244.9 381.7,383.8 740.0,442.9" fill="none" stroke="#7B3FB3" stroke-width="3"/>
<circle cx="95.0" cy="104.1" r="5" fill="#7B3FB3" stroke="#fff" stroke-width="1.5"/>
<circle cx="166.7" cy="244.9" r="5" fill="#7B3FB3" stroke="#fff" stroke-width="1.5"/>
<circle cx="381.7" cy="383.8" r="5" fill="#7B3FB3" stroke="#fff" stroke-width="1.5"/>
<circle cx="740.0" cy="442.9" r="5" fill="#7B3FB3" stroke="#fff" stroke-width="1.5"/>
<line x1="775" y1="142" x2="799" y2="142" stroke="#7B3FB3" stroke-width="3"/>
<circle cx="787" cy="142" r="4" fill="#7B3FB3"/>
<text x="809" y="146" font-family="Arial" font-size="13">EcsLearnedPolicyGpuInstanced</text>
<polyline points="95.0,272.6 166.7,388.0 381.7,474.0 740.0,503.0" fill="none" stroke="#E17C05" stroke-width="3"/>
<circle cx="95.0" cy="272.6" r="5" fill="#E17C05" stroke="#fff" stroke-width="1.5"/>
<circle cx="166.7" cy="388.0" r="5" fill="#E17C05" stroke="#fff" stroke-width="1.5"/>
<circle cx="381.7" cy="474.0" r="5" fill="#E17C05" stroke="#fff" stroke-width="1.5"/>
<circle cx="740.0" cy="503.0" r="5" fill="#E17C05" stroke="#fff" stroke-width="1.5"/>
<line x1="775" y1="166" x2="799" y2="166" stroke="#E17C05" stroke-width="3"/>
<circle cx="787" cy="166" r="4" fill="#E17C05"/>
<text x="809" y="170" font-family="Arial" font-size="13">LearnedPolicyGpuInstanced</text>
<polyline points="95.0,269.6 166.7,383.4 381.7,472.5 740.0,503.4" fill="none" stroke="#4D908E" stroke-width="3"/>
<circle cx="95.0" cy="269.6" r="5" fill="#4D908E" stroke="#fff" stroke-width="1.5"/>
<circle cx="166.7" cy="383.4" r="5" fill="#4D908E" stroke="#fff" stroke-width="1.5"/>
<circle cx="381.7" cy="472.5" r="5" fill="#4D908E" stroke="#fff" stroke-width="1.5"/>
<circle cx="740.0" cy="503.4" r="5" fill="#4D908E" stroke="#fff" stroke-width="1.5"/>
<line x1="775" y1="190" x2="799" y2="190" stroke="#4D908E" stroke-width="3"/>
<circle cx="787" cy="190" r="4" fill="#4D908E"/>
<text x="809" y="194" font-family="Arial" font-size="13">SpatialHashGpuInstanced</text>
<text x="417.5" y="595" text-anchor="middle" font-family="Arial" font-size="15">Agent Count</text>
<text x="24" y="300.0" text-anchor="middle" font-family="Arial" font-size="15" transform="rotate(-90 24 300.0)">Average FPS</text>
</svg>